<svg width="170" height="63" viewBox="0 0 170 63" fill="none" xmlns="http://www.w3.org/2000/svg">
<path d="M167.147 35.4067V11.5478C167.147 10.7462 166.511 10.0976 165.724 10.0976H158.495V8.54537C158.495 7.74375 157.858 7.08789 157.072 7.08789C156.278 7.08789 155.641 7.73647 155.641 8.54537V10.0976H149.935V8.54537C149.935 7.74375 149.299 7.08789 148.512 7.08789C147.726 7.08789 147.089 7.73647 147.089 8.54537V10.0976H141.383V8.54537C141.383 7.74375 140.747 7.08789 139.96 7.08789C139.173 7.08789 138.537 7.73647 138.537 8.54537V10.0976H132.831V8.54537C132.831 7.74375 132.194 7.08789 131.408 7.08789C130.621 7.08789 129.985 7.73647 129.985 8.54537V10.0976H122.741C121.955 10.0903 121.318 10.7462 121.318 11.5478V49.4349C121.318 50.2365 121.955 50.8851 122.741 50.8851H146.496C148.798 54.3903 152.724 56.7004 157.165 56.7004C164.244 56.7004 170 50.834 170 43.6195C170 40.5151 168.927 37.6585 167.147 35.4067ZM129.971 12.998V14.4481C129.971 15.2498 130.607 15.8983 131.394 15.8983C132.18 15.8983 132.817 15.2498 132.817 14.4481V12.998H138.523V14.4481C138.523 15.2498 139.159 15.8983 139.946 15.8983C140.732 15.8983 141.369 15.2498 141.369 14.4481V12.998H147.075V14.4481C147.075 15.2498 147.711 15.8983 148.498 15.8983C149.285 15.8983 149.921 15.2498 149.921 14.4481V12.998H155.641V14.4481C155.641 15.2498 156.278 15.8983 157.064 15.8983C157.851 15.8983 158.487 15.2498 158.487 14.4481V12.998H164.287V18.8133H124.171V12.998H129.971ZM124.171 47.9774V21.721H164.294V32.7468C162.256 31.3549 159.796 30.5387 157.165 30.5387C152.66 30.5387 148.684 32.9217 146.396 36.5071C146.203 36.4123 145.988 36.3467 145.752 36.3467H142.899C142.112 36.3467 141.476 36.9953 141.476 37.8042C141.476 38.6058 142.112 39.2544 142.899 39.2544H145.058C144.737 40.1799 144.515 41.1564 144.401 42.1621H142.899C142.112 42.1621 141.476 42.8106 141.476 43.6122C141.476 44.4139 142.112 45.0624 142.899 45.0624H144.401C144.508 46.0681 144.737 47.0446 145.058 47.9701H124.171V47.9774ZM157.165 53.7927C151.659 53.7927 147.182 49.2308 147.182 43.6195C147.182 38.0083 151.659 33.4464 157.165 33.4464C162.671 33.4464 167.147 38.0083 167.147 43.6195C167.147 49.2308 162.671 53.7927 157.165 53.7927Z" fill="#E68038"/>
<path d="M162.871 42.162H158.595V37.8042C158.595 37.0025 157.958 36.3467 157.172 36.3467C156.385 36.3467 155.749 36.9953 155.749 37.8042V43.6195C155.749 44.4211 156.385 45.0697 157.172 45.0697H162.878C163.664 45.0697 164.301 44.4211 164.301 43.6195C164.294 42.8179 163.657 42.162 162.871 42.162Z" fill="#E68038"/>
<path d="M134.247 24.7227H131.401C130.614 24.7227 129.978 25.3785 129.978 26.1801C129.978 26.9817 130.614 27.6303 131.401 27.6303H134.254C135.04 27.6303 135.677 26.9817 135.677 26.1801C135.677 25.3785 135.04 24.7227 134.247 24.7227Z" fill="#E68038"/>
<path d="M134.247 30.5381H131.401C130.614 30.5381 129.978 31.1867 129.978 31.9883C129.978 32.7899 130.614 33.4385 131.401 33.4385H134.254C135.04 33.4385 135.677 32.7899 135.677 31.9883C135.677 31.1867 135.04 30.5381 134.247 30.5381Z" fill="#E68038"/>
<path d="M134.247 36.3535H131.401C130.614 36.3535 129.978 37.0021 129.978 37.811C129.978 38.6126 130.614 39.2612 131.401 39.2612H134.254C135.04 39.2612 135.677 38.6126 135.677 37.811C135.677 37.0021 135.04 36.3535 134.247 36.3535Z" fill="#E68038"/>
<path d="M142.899 27.6309H145.752C146.539 27.6309 147.175 26.9823 147.175 26.1807C147.175 25.379 146.539 24.7305 145.752 24.7305H142.899C142.112 24.7305 141.469 25.379 141.469 26.1807C141.476 26.9823 142.112 27.6309 142.899 27.6309Z" fill="#E68038"/>
<path d="M142.899 33.4463H145.752C146.539 33.4463 147.175 32.7977 147.175 31.9961C147.175 31.1945 146.539 30.5459 145.752 30.5459H142.899C142.112 30.5459 141.469 31.1945 141.469 31.9961C141.476 32.7904 142.112 33.4463 142.899 33.4463Z" fill="#E68038"/>
<path d="M134.247 42.1621H131.401C130.614 42.1621 129.978 42.8107 129.978 43.6123C129.978 44.4139 130.614 45.0625 131.401 45.0625H134.254C135.04 45.0625 135.677 44.4139 135.677 43.6123C135.677 42.818 135.04 42.1621 134.247 42.1621Z" fill="#E68038"/>
<path d="M154.311 27.6309H157.164C157.951 27.6309 158.587 26.9823 158.587 26.1807C158.587 25.379 157.951 24.7305 157.164 24.7305H154.311C153.525 24.7305 152.881 25.379 152.881 26.1807C152.888 26.9823 153.525 27.6309 154.311 27.6309Z" fill="#E68038"/>
<path d="M6.97281 19.9626C6.97281 21.8323 5.60261 23.2035 3.74522 23.2035H2.40547V25.6653H0V16.7217H3.71477C5.57216 16.7217 6.97281 18.0928 6.97281 19.9626ZM4.476 19.9626C4.476 19.3393 4.04971 18.8719 3.41028 18.8719H2.40547V21.0533H3.41028C4.08016 21.0533 4.476 20.617 4.476 19.9626Z" fill="#E68038"/>
<path d="M11.0225 22.923H10.1395V25.6653H7.73401V16.7217H11.5097C13.3975 16.7217 14.7677 18.0305 14.7677 19.9002C14.7677 20.9909 14.2501 21.8946 13.3671 22.4244L15.1027 25.6653H12.4232L11.0225 22.923ZM10.1395 20.8663H11.2356C11.9055 20.8663 12.3014 20.4612 12.3014 19.9002C12.3014 19.3393 11.9055 18.9342 11.2356 18.9342H10.1395V20.8663Z" fill="#E68038"/>
<path d="M20.1572 25.915C17.3559 25.915 15.3463 23.9517 15.3463 21.2094C15.3463 18.4671 17.3255 16.5039 20.1572 16.5039C22.9586 16.5039 24.9682 18.4671 24.9682 21.2094C24.9377 23.9517 22.9586 25.915 20.1572 25.915ZM20.1572 23.6089C21.497 23.6089 22.4409 22.6117 22.4409 21.2094C22.4409 19.8071 21.4666 18.8099 20.1572 18.8099C18.8175 18.8099 17.8431 19.8383 17.8431 21.2094C17.8431 22.5806 18.8175 23.6089 20.1572 23.6089Z" fill="#E68038"/>
<path d="M34.6814 20.8978C34.6814 23.8271 32.824 25.915 30.0836 25.915C27.4041 25.915 25.4249 23.9517 25.4249 21.2094C25.4249 18.4671 27.3737 16.5039 30.0532 16.5039C32.3368 16.5039 34.2247 17.9685 34.5901 20.0564H32.0628C31.7583 19.3085 30.9666 18.8099 30.0836 18.8099C28.7743 18.8099 27.8913 19.776 27.8913 21.2094C27.8913 22.6117 28.7439 23.5778 30.0836 23.5778C30.9971 23.5778 31.7888 23.1103 32.0628 22.4248H29.9009V20.8666L34.6814 20.8978Z" fill="#E68038"/>
<path d="M38.8529 22.923H37.9699V25.6653H35.5645V16.7217H39.3401C41.228 16.7217 42.5982 18.0305 42.5982 19.9002C42.5982 20.9909 42.0805 21.8946 41.1975 22.4244L42.9331 25.6653H40.2536L38.8529 22.923ZM38.0004 20.8663H39.0965C39.7664 20.8663 40.1622 20.4612 40.1622 19.9002C40.1622 19.3393 39.7664 18.9342 39.0965 18.9342H38.0004V20.8663Z" fill="#E68038"/>
<path d="M48.9924 24.2319H45.8866L45.3994 25.6965H42.8113L46.252 16.7529H48.5966L52.0982 25.6965H49.4491L48.9924 24.2319ZM47.4395 19.5264L46.4956 22.2998H48.4139L47.4395 19.5264Z" fill="#E68038"/>
<path d="M61.2938 25.6653L60.5934 20.5235L58.2793 25.6965H57.579L55.2649 20.5235L54.595 25.6653H52.1591L53.4684 16.7217H55.8738L57.9444 21.583L60.0149 16.7217H62.4204L63.7297 25.6653H61.2938Z" fill="#E68038"/>
<path d="M69.9109 24.2319H66.8051L66.3179 25.6965H63.7297L67.1705 16.7529H69.515L73.0167 25.6965H70.3676L69.9109 24.2319ZM68.358 19.5264L67.4141 22.2998H69.3323L68.358 19.5264Z" fill="#E68038"/>
<path d="M77.3404 25.915C74.6914 25.915 72.6818 23.8894 72.6818 21.2094C72.6818 18.5295 74.6609 16.5039 77.3404 16.5039C79.6241 16.5039 81.3902 18.062 81.7555 20.3057H79.3196C79.0151 19.402 78.2539 18.7788 77.3404 18.7788C76.092 18.7788 75.209 19.8071 75.209 21.1783C75.209 22.5494 76.1225 23.5466 77.3404 23.5466C78.3148 23.5466 79.076 22.8922 79.3196 21.895H81.786C81.451 24.2945 79.685 25.915 77.3404 25.915Z" fill="#E68038"/>
<path d="M82.6385 16.7217H85.0745V25.6653H82.6385V16.7217Z" fill="#E68038"/>
<path d="M90.7989 25.915C87.9976 25.915 85.9879 23.9517 85.9879 21.2094C85.9879 18.4671 87.9976 16.5039 90.7989 16.5039C93.6002 16.5039 95.6098 18.4671 95.6098 21.2094C95.6098 23.9517 93.6002 25.915 90.7989 25.915ZM90.7989 23.6089C92.1386 23.6089 93.0825 22.6117 93.0825 21.2094C93.0825 19.8071 92.1082 18.8099 90.7989 18.8099C89.4896 18.8099 88.4847 19.8383 88.4847 21.2094C88.4847 22.5806 89.4896 23.6089 90.7989 23.6089Z" fill="#E68038"/>
<path d="M104.318 16.7217V25.6653H102.339L98.8678 20.804V25.6653H96.5232V16.7217H98.6242L101.974 21.4272V16.7217H104.318Z" fill="#E68038"/>
<path d="M18.1171 40.5928C18.1171 46.4825 13.8847 50.6894 7.94718 50.6894H0V30.5273H7.97763C13.9152 30.5273 18.1171 34.7031 18.1171 40.5928ZM12.5754 40.5928C12.5754 37.6012 10.6267 35.6068 7.70359 35.6068H5.45037V45.5788H7.70359C10.6267 45.61 12.5754 43.5532 12.5754 40.5928Z" fill="#E68038"/>
<path d="M33.0676 45.8593V50.6583H20.2485V30.5273H32.8544V35.3264H25.638V38.2868H32.0932V42.8365H25.638V45.8593H33.0676Z" fill="#E68038"/>
<path d="M50.3321 51.1876C44.3337 51.1876 39.8577 46.6379 39.8577 40.6235C39.8577 34.578 44.3337 30.0283 50.3321 30.0283C55.478 30.0283 59.4973 33.5185 60.2889 38.6291H54.8081C54.1382 36.5724 52.4331 35.2324 50.3626 35.2324C47.5613 35.2324 45.5212 37.5385 45.5212 40.6547C45.5212 43.7709 47.5613 46.0146 50.3626 46.0146C52.5549 46.0146 54.26 44.55 54.8081 42.3063H60.3498C59.5886 47.6039 55.5693 51.1876 50.3321 51.1876Z" fill="#E68038"/>
<path d="M62.2073 30.5273H67.6881V50.6583H62.2073V30.5273Z" fill="#E68038"/>
<path d="M85.5921 35.5445H80.2331V50.6894H74.7827V35.5445H69.4237V30.5273H85.5617V35.5445H85.5921Z" fill="#E68038"/>
<path d="M97.254 47.4174H90.2812L89.185 50.6894H83.3693L91.1338 30.5273H96.4319L104.318 50.6583H98.3502L97.254 47.4174ZM93.7828 36.8221L91.6209 43.0546H95.9447L93.7828 36.8221Z" fill="#E68038"/>
<path d="M93.0825 13.3877L93.3261 15.2886L87.754 16.0677L87.5104 14.1668L93.0825 13.3877Z" fill="#E68038"/>
</svg>
