<svg width="170" height="63" viewBox="0 0 170 63" fill="none" xmlns="http://www.w3.org/2000/svg">
<g clip-path="url(#clip0_2355_5675)">
<path d="M12.276 37L12.24 31.258L9.504 35.866H7.632L4.896 31.456V37H1.026V24.4H4.518L8.622 31.114L12.618 24.4H16.11L16.146 37H12.276ZM18.1998 24.4H22.4478V37H18.1998V24.4ZM36.4053 37.288C35.0733 37.288 33.8733 37.012 32.8053 36.46C31.7373 35.896 30.8973 35.116 30.2853 34.12C29.6853 33.112 29.3853 31.972 29.3853 30.7C29.3853 29.428 29.6853 28.294 30.2853 27.298C30.8973 26.29 31.7373 25.51 32.8053 24.958C33.8733 24.394 35.0733 24.112 36.4053 24.112C37.6293 24.112 38.7213 24.328 39.6813 24.76C40.6413 25.192 41.4333 25.816 42.0573 26.632L39.3753 29.026C38.5953 28.042 37.6773 27.55 36.6213 27.55C35.7333 27.55 35.0193 27.838 34.4793 28.414C33.9393 28.978 33.6693 29.74 33.6693 30.7C33.6693 31.66 33.9393 32.428 34.4793 33.004C35.0193 33.568 35.7333 33.85 36.6213 33.85C37.6773 33.85 38.5953 33.358 39.3753 32.374L42.0573 34.768C41.4333 35.584 40.6413 36.208 39.6813 36.64C38.7213 37.072 37.6293 37.288 36.4053 37.288ZM49.138 37.288C47.206 37.288 45.7 36.766 44.62 35.722C43.54 34.678 43 33.214 43 31.33V24.4H47.248V31.204C47.248 32.128 47.41 32.8 47.734 33.22C48.07 33.64 48.55 33.85 49.174 33.85C49.798 33.85 50.272 33.64 50.596 33.22C50.932 32.8 51.1 32.128 51.1 31.204V24.4H55.276V31.33C55.276 33.214 54.736 34.678 53.656 35.722C52.576 36.766 51.07 37.288 49.138 37.288ZM67.6993 33.796V37H57.2233V24.4H67.4653V27.604H61.3993V29.08H66.7273V32.14H61.3993V33.796H67.6993ZM81.7546 24.4V37H78.2626L73.4746 31.276V37H69.3346V24.4H72.8266L77.6146 30.124V24.4H81.7546ZM86.5374 27.694H82.8474V24.4H94.4754V27.694H90.7854V37H86.5374V27.694ZM103.532 34.804H98.7439L97.8979 37H93.5779L99.0859 24.4H103.262L108.77 37H104.378L103.532 34.804ZM102.362 31.744L101.138 28.576L99.9139 31.744H102.362Z" fill="#00559C"/>
<path d="M141.211 37.2878L139.425 36.6945C138.838 36.501 138.438 35.9514 138.438 35.3332C138.438 34.4401 139.162 33.7157 140.055 33.7157C140.948 33.7157 141.673 34.4401 141.673 35.3332H143.29C143.284 33.8594 142.285 32.5791 140.861 32.2107V30.4746H139.243V32.2107C137.82 32.5791 136.82 33.8594 136.814 35.3332C136.814 36.6508 137.657 37.8186 138.9 38.2308L140.686 38.8241C141.273 39.0177 141.667 39.5672 141.667 40.1855C141.667 41.0785 140.942 41.8029 140.049 41.8029C139.156 41.8029 138.432 41.0785 138.432 40.1855H136.814C136.82 41.6593 137.82 42.9395 139.243 43.3079V45.044H140.861V43.3079C142.285 42.9395 143.284 41.6593 143.29 40.1855C143.303 38.874 142.46 37.7062 141.211 37.2878Z" fill="#00559C" stroke="#00559C" stroke-width="0.25"/>
<path d="M169.2 24.8105H152.839C151.127 22.6997 148.979 20.9949 146.537 19.8021V16.3112L149.454 14.1254C149.66 13.9756 149.779 13.732 149.779 13.476V7.81183C149.779 7.3622 149.416 7 148.967 7H145.732C145.52 7 145.313 7.08742 145.157 7.2373L144.108 8.28645L143.059 7.2373C142.909 7.08742 142.703 7 142.484 7H137.626C137.414 7 137.208 7.08742 137.051 7.2373L136.002 8.28645L134.953 7.2373C134.803 7.08742 134.597 7 134.379 7H131.144C130.694 7 130.332 7.3622 130.332 7.81183V13.476C130.332 13.732 130.451 13.9693 130.657 14.1254L133.573 16.3112V19.8146C127.447 22.7809 121.433 30.7432 121.433 40.9599C121.433 50.2461 128.221 55.573 140.049 55.573C141.972 55.5793 143.883 55.4106 145.776 55.0609C145.9 55.3669 146.194 55.5668 146.525 55.573H169.188C169.637 55.573 170 55.2108 170 54.7612V25.6224C170.012 25.1727 169.65 24.8105 169.2 24.8105ZM131.968 13.0701V8.61743H134.06L135.44 9.99756C135.759 10.316 136.271 10.316 136.583 9.99756L137.963 8.61743H142.147L143.527 9.99756C143.846 10.316 144.358 10.316 144.67 9.99756L146.05 8.61743H148.142V13.0701L145.445 15.0934H134.653L131.968 13.0701ZM144.92 19.1401H135.209V16.7108H144.92V19.1401ZM145.726 44.6194C141.935 47.7544 136.327 47.2298 133.192 43.4391C130.057 39.6484 130.582 34.0405 134.372 30.9056C137.67 28.1765 142.435 28.1765 145.732 30.9056V44.6194H145.726ZM145.726 25.6161V28.9009C140.836 25.766 134.322 27.1836 131.187 32.0796C128.052 36.9694 129.47 43.4828 134.366 46.6178C137.826 48.841 142.266 48.841 145.726 46.6178V53.4248C143.858 53.7807 141.96 53.9556 140.061 53.9493C134.953 53.9493 123.063 52.6816 123.063 40.9536C123.063 33.2099 127.703 23.574 135.478 20.7638H144.658C146.95 21.6318 149.004 23.0182 150.672 24.8105H146.537C146.094 24.8105 145.726 25.1727 145.726 25.6161ZM168.395 53.9493H147.349V32.9039H168.395V53.9493ZM168.395 31.2865H147.349V26.428H168.395V31.2865Z" fill="#00559C" stroke="#00559C" stroke-width="0.25"/>
<path d="M153.013 34.5215H149.779C149.335 34.5215 148.967 34.8837 148.967 35.3333V38.5682C148.967 39.0116 149.329 39.38 149.779 39.38H153.013C153.463 39.38 153.825 39.0178 153.825 38.5682V35.3333C153.825 34.8837 153.463 34.5215 153.013 34.5215ZM152.202 37.7564H150.584V36.1389H152.202V37.7564Z" fill="#00559C" stroke="#00559C" stroke-width="0.25"/>
<path d="M159.489 34.5215H156.255C155.811 34.5215 155.443 34.8837 155.443 35.3333V38.5682C155.443 39.0116 155.805 39.38 156.255 39.38H159.489C159.939 39.38 160.301 39.0178 160.301 38.5682V35.3333C160.301 34.8837 159.939 34.5215 159.489 34.5215ZM158.678 37.7564H157.06V36.1389H158.678V37.7564Z" fill="#00559C" stroke="#00559C" stroke-width="0.25"/>
<path d="M165.965 34.5215H162.73C162.287 34.5215 161.919 34.8837 161.919 35.3333V38.5682C161.919 39.0116 162.281 39.38 162.73 39.38H165.965C166.415 39.38 166.777 39.0178 166.777 38.5682V35.3333C166.777 34.8837 166.409 34.5215 165.965 34.5215ZM165.153 37.7564H163.536V36.1389H165.153V37.7564Z" fill="#00559C" stroke="#00559C" stroke-width="0.25"/>
<path d="M153.013 40.9971H149.779C149.335 40.9971 148.967 41.3593 148.967 41.8027V45.0375C148.967 45.4872 149.329 45.8494 149.779 45.8494H153.013C153.463 45.8494 153.825 45.4872 153.825 45.0375V41.8027C153.825 41.3593 153.463 40.9971 153.013 40.9971ZM152.202 44.2319H150.584V42.6145H152.202V44.2319Z" fill="#00559C" stroke="#00559C" stroke-width="0.25"/>
<path d="M159.489 40.9971H156.255C155.811 40.9971 155.443 41.3593 155.443 41.8027V45.0375C155.443 45.4872 155.805 45.8494 156.255 45.8494H159.489C159.939 45.8494 160.301 45.4872 160.301 45.0375V41.8027C160.301 41.3593 159.939 40.9971 159.489 40.9971ZM158.678 44.2319H157.06V42.6145H158.678V44.2319Z" fill="#00559C" stroke="#00559C" stroke-width="0.25"/>
<path d="M153.013 47.4736H149.779C149.335 47.4736 148.967 47.8358 148.967 48.2855V51.5203C148.967 51.97 149.329 52.3322 149.779 52.3322H153.013C153.463 52.3322 153.825 51.97 153.825 51.5203V48.2855C153.825 47.8358 153.463 47.4736 153.013 47.4736ZM152.202 50.7085H150.584V49.0911H152.202V50.7085Z" fill="#00559C" stroke="#00559C" stroke-width="0.25"/>
<path d="M159.489 47.4736H156.255C155.811 47.4736 155.443 47.8358 155.443 48.2855V51.5203C155.443 51.97 155.805 52.3322 156.255 52.3322H159.489C159.939 52.3322 160.301 51.97 160.301 51.5203V48.2855C160.301 47.8358 159.939 47.4736 159.489 47.4736ZM158.678 50.7085H157.06V49.0911H158.678V50.7085Z" fill="#00559C" stroke="#00559C" stroke-width="0.25"/>
<path d="M165.965 40.9971H162.73C162.287 40.9971 161.919 41.3593 161.919 41.8027V51.5135C161.919 51.9632 162.281 52.3254 162.73 52.3254H165.965C166.415 52.3254 166.777 51.9632 166.777 51.5135V41.8027C166.777 41.3593 166.409 40.9971 165.965 40.9971ZM165.153 50.7079H163.536V42.6145H165.153V50.7079Z" fill="#00559C" stroke="#00559C" stroke-width="0.25"/>
<path d="M166.771 28.0449H165.153V29.6624H166.771V28.0449Z" fill="#00559C" stroke="#00559C" stroke-width="0.25"/>
<path d="M163.536 28.0449H161.919V29.6624H163.536V28.0449Z" fill="#00559C" stroke="#00559C" stroke-width="0.25"/>
<path d="M160.295 28.0449H158.678V29.6624H160.295V28.0449Z" fill="#00559C" stroke="#00559C" stroke-width="0.25"/>
</g>
<defs>
<clipPath id="clip0_2355_5675">
<rect width="170" height="63" fill="white"/>
</clipPath>
</defs>
</svg>
