<svg width="171" height="62" viewBox="0 0 171 62" fill="none" xmlns="http://www.w3.org/2000/svg">
<path fill-rule="evenodd" clip-rule="evenodd" d="M21.1401 23.8688C21.4934 18.4852 18.515 15.3154 12.2553 15.3154C6.55081 15.3406 1.35119 19.5418 0.215346 26.3091C-0.920495 33.1014 2.48703 37.353 9.25159 37.353C14.6531 37.353 18.9946 34.1077 20.4838 28.699H14.0221C13.4416 30.7115 12.1543 32.2461 9.98358 32.2461C6.57606 32.2461 6.39937 29.4788 6.87895 26.5606C7.56045 22.5103 9.30207 20.4475 11.6747 20.4475C13.7697 20.4475 14.9056 21.7053 14.7541 23.8688H21.1401Z" fill="#3F80EC"/>
<path fill-rule="evenodd" clip-rule="evenodd" d="M32.9275 20.6994C35.906 20.6239 36.537 23.6428 36.0574 26.4855C35.4769 29.932 33.9119 32.4981 31.0092 32.4981C27.8036 32.4981 27.5512 29.1522 28.0056 26.4855C28.4347 23.8189 29.8734 20.6994 32.9275 20.6994ZM33.8362 15.5674C27.4503 15.5674 22.4021 19.8441 21.3167 26.4101C20.1304 33.5295 23.7651 37.6049 30.2015 37.6049C36.2593 37.6049 41.6357 33.605 42.7967 26.4855C43.6802 20.951 41.1308 15.5674 33.8362 15.5674Z" fill="#3F80EC"/>
<path fill-rule="evenodd" clip-rule="evenodd" d="M51.5806 15.8945H45.2704L41.8124 36.8H48.2488L49.3342 30.1837L49.8895 25.429L55.3163 36.8H61.6012L65.0593 15.8945H58.6228L57.5375 22.536L56.9822 27.3158L51.5806 15.8945Z" fill="#3F80EC"/>
<path fill-rule="evenodd" clip-rule="evenodd" d="M62.5603 29.4539H69.9054L70.7131 24.5735H63.368L63.999 20.7496H73.212L74.0197 15.8691H64.9077L62.5603 29.4539Z" fill="#3F80EC"/>
<path fill-rule="evenodd" clip-rule="evenodd" d="M78.3865 36.9756L81.8445 16.0449H75.1304L71.6724 36.9756H78.3865Z" fill="#3F80EC"/>
<path fill-rule="evenodd" clip-rule="evenodd" d="M93.2787 29.8561H89.0382L92.37 22.3593L93.2787 29.8561ZM85.8074 36.9756L87.0442 34.2083H93.733L94.0864 36.9756H100.775L96.8881 16.0449H90.0478L79.2195 36.9756H85.8074Z" fill="#3F80EC"/>
<path d="M5.54107 45.8066V47.467H1.02295V40.5488H5.46535V42.2092H2.91602V43.2406H5.1877V44.8004H2.91602V45.8318H5.54107V45.8066Z" fill="#3F80EC"/>
<path d="M12.5833 40.5234V47.4416H10.9931L8.24188 43.6932V47.4416H6.39929V40.5234H8.06519L10.7407 44.146V40.5234H12.5833Z" fill="#3F80EC"/>
<path d="M20.5342 42.2341H18.6411V47.4416H16.7228V42.2341H14.8297V40.5234H20.5342V42.2341Z" fill="#3F80EC"/>
<path d="M21.0642 44.775V40.5234H23.0078V44.7247C23.0078 45.4039 23.4369 45.8316 24.0931 45.8316C24.7494 45.8316 25.1785 45.4039 25.1785 44.7247V40.5234H27.122V44.775C27.122 46.4856 25.86 47.6177 24.0931 47.6177C22.3263 47.6177 21.0642 46.4856 21.0642 44.775Z" fill="#3F80EC"/>
<path d="M27.8035 45.2274H29.7723C29.7723 45.7305 30.1509 45.9569 30.58 45.9569C30.9838 45.9569 31.3624 45.7557 31.3624 45.3783C31.3624 44.9506 30.8324 44.8249 30.1509 44.6488C29.1412 44.3972 27.8539 44.0953 27.8539 42.5104C27.8539 41.1519 28.8636 40.3721 30.5042 40.3721C32.1701 40.3721 33.1293 41.2274 33.1293 42.6362H31.211C31.211 42.2085 30.8829 41.9821 30.479 41.9821C30.1256 41.9821 29.8227 42.1331 29.8227 42.4601C29.8227 42.8626 30.3528 42.9884 31.0091 43.1393C32.0187 43.3909 33.3565 43.7431 33.3565 45.328C33.3565 46.8374 32.1954 47.6173 30.58 47.6173C28.9141 47.6173 27.8035 46.7368 27.8035 45.2274Z" fill="#3F80EC"/>
<path d="M42.4433 43.9947C42.4433 46.0073 40.9541 47.4664 38.8591 47.4664H36.0574V40.5482H38.8591C40.9541 40.523 42.4433 41.957 42.4433 43.9947ZM40.4745 43.9947C40.4745 42.9633 39.793 42.284 38.7582 42.284H37.9504V45.7054H38.7582C39.793 45.7054 40.4745 45.001 40.4745 43.9947Z" fill="#3F80EC"/>
<path d="M47.7187 45.8066V47.467H43.2006V40.5488H47.643V42.2092H45.0936V43.2406H47.3653V44.8004H45.0936V45.8318H47.7187V45.8066Z" fill="#3F80EC"/>
<path d="M48.2234 45.2274H50.1922C50.1922 45.7305 50.5708 45.9569 50.9999 45.9569C51.4037 45.9569 51.7824 45.7557 51.7824 45.3783C51.7824 44.9506 51.2523 44.8249 50.5708 44.6488C49.5612 44.3972 48.2739 44.0953 48.2739 42.5104C48.2739 41.1519 49.2835 40.3721 50.9242 40.3721C52.5901 40.3721 53.5492 41.2274 53.5492 42.6362H51.6309C51.6309 42.2085 51.3028 41.9821 50.8989 41.9821C50.5456 41.9821 50.2427 42.1331 50.2427 42.4601C50.2427 42.8626 50.7727 42.9884 51.429 43.1393C52.4386 43.3909 53.7764 43.7431 53.7764 45.328C53.7764 46.8374 52.6153 47.6173 50.9999 47.6173C49.334 47.6173 48.2234 46.7368 48.2234 45.2274Z" fill="#3F80EC"/>
<path d="M57.8907 47.618C55.7705 47.618 54.2056 46.0583 54.2056 43.9954C54.2056 41.9074 55.7957 40.3477 57.8907 40.3477C59.7081 40.3477 61.1216 41.5552 61.3992 43.291H59.4557C59.2285 42.5866 58.6227 42.1087 57.8907 42.1087C56.9063 42.1087 56.1744 42.8885 56.1744 43.9703C56.1744 45.0269 56.9063 45.8067 57.8907 45.8067C58.6732 45.8067 59.279 45.3036 59.4557 44.5489H61.4245C61.1468 46.3854 59.7333 47.618 57.8907 47.618Z" fill="#3F80EC"/>
<path d="M62.005 44.775V40.5234H63.9486V44.7247C63.9486 45.4039 64.3777 45.8316 65.0339 45.8316C65.6649 45.8316 66.1193 45.4039 66.1193 44.7247V40.5234H68.0628V44.775C68.0628 46.4856 66.8008 47.6177 65.0339 47.6177C63.2671 47.6177 62.005 46.4856 62.005 44.775Z" fill="#3F80EC"/>
<path d="M73.6411 45.8066V47.467H69.1229V40.5488H73.5653V42.2092H71.016V43.2406H73.2877V44.8004H71.016V45.8318H73.6411V45.8066Z" fill="#3F80EC"/>
<path d="M80.6833 40.5234V47.4416H79.0931L76.3418 43.6932V47.4416H74.474V40.5234H76.1399L78.8154 44.146V40.5234H80.6833Z" fill="#3F80EC"/>
<path d="M86.9935 42.2341H85.1004V47.4416H83.1821V42.2341H81.2891V40.5234H86.9935V42.2341Z" fill="#3F80EC"/>
<path d="M90.8806 47.6178C88.6594 47.6178 87.0439 46.1084 87.0439 43.97C87.0439 41.8317 88.6341 40.3223 90.8806 40.3223C93.1018 40.3223 94.692 41.8317 94.692 43.97C94.692 46.1084 93.1018 47.6178 90.8806 47.6178ZM92.6979 43.9952C92.6979 42.9134 91.9407 42.1336 90.8806 42.1336C89.8205 42.1336 89.038 42.9134 89.038 43.9952C89.038 45.0769 89.8205 45.8568 90.8806 45.8568C91.9407 45.8568 92.6979 45.0769 92.6979 43.9952Z" fill="#3F80EC"/>
<path d="M95.0706 45.2274H97.0394C97.0394 45.7305 97.418 45.9569 97.8471 45.9569C98.2509 45.9569 98.6295 45.7557 98.6295 45.3783C98.6295 44.9506 98.0995 44.8249 97.418 44.6488C96.4083 44.3972 95.121 44.0953 95.121 42.5104C95.121 41.1519 96.1307 40.3721 97.7713 40.3721C99.4372 40.3721 100.396 41.2274 100.396 42.6362H98.4781C98.4781 42.2085 98.15 41.9821 97.7461 41.9821C97.3927 41.9821 97.0898 42.1331 97.0898 42.4601C97.0898 42.8626 97.6199 42.9884 98.2762 43.1393C99.2858 43.3909 100.624 43.7431 100.624 45.328C100.624 46.8374 99.4625 47.6173 97.8471 47.6173C96.1812 47.6173 95.0706 46.7368 95.0706 45.2274Z" fill="#3F80EC"/>
<path d="M119.277 19.4163C119.15 19.3409 119.05 19.2906 118.949 19.2402C117.787 18.561 116.652 17.8314 115.592 17.0013C114.834 16.3975 114.153 15.7434 113.547 14.9887C113.244 14.6113 112.966 14.1837 112.765 13.7309C112.563 13.278 112.436 12.8252 112.411 12.3472C112.386 11.5422 112.638 10.8378 113.168 10.2592C113.724 9.65541 114.43 9.35353 115.238 9.32837C115.894 9.30321 116.5 9.429 117.131 9.65541C117.863 9.90698 118.545 10.2592 119.201 10.6617C120.312 11.3158 121.321 12.1208 122.28 12.951C122.356 13.0265 122.432 13.1019 122.558 13.1271C122.608 13.0768 122.684 13.0013 122.735 12.951C123.467 12.1963 124.375 11.8189 125.41 11.8441C125.789 11.8441 126.142 11.9195 126.496 12.0453C128.237 12.6491 130.004 13.2277 131.746 13.8315C134.951 14.9132 138.132 15.995 141.337 17.0767C141.867 17.2528 142.347 17.5044 142.751 17.8818C143.155 18.2591 143.432 18.6868 143.634 19.1899C144.114 20.322 144.568 21.4541 145.048 22.5861C147.496 28.5232 149.97 34.4602 152.418 40.3722C153.453 42.8879 154.513 45.4036 155.548 47.9193C155.725 48.3721 155.851 48.8249 155.851 49.3029C155.876 50.762 155.043 52.045 153.705 52.5985C153.049 52.8752 152.368 53.1519 151.711 53.4286C145.048 56.1708 138.384 58.9129 131.746 61.655C131.342 61.8311 130.938 61.9569 130.484 61.982C128.944 62.1078 127.556 61.2022 126.975 59.8689C126.798 59.416 126.597 58.9884 126.42 58.5355C122.785 49.7809 119.15 41.0011 115.516 32.2464C115.339 31.8188 115.162 31.4162 114.986 30.9886C114.557 29.9571 114.582 28.9257 115.087 27.8943C116.374 25.3031 117.661 22.6868 118.974 20.0956C119.05 19.9446 119.125 19.7937 119.201 19.6428C119.226 19.5673 119.226 19.4918 119.277 19.4163ZM127.051 18.0579C127.127 18.0579 127.177 18.0579 127.253 18.0327C127.732 17.9321 128.187 17.9321 128.666 18.0075C130.938 18.4101 132.351 20.5484 131.897 22.6868C131.392 25.1521 128.792 26.4603 126.521 25.5547C124.779 24.8503 123.744 23.039 124.123 21.1019C124.274 20.3472 124.628 19.6931 125.133 19.1396C125.208 19.0641 125.309 19.0138 125.334 18.888C124.653 18.0075 123.921 17.1522 123.164 16.3472C123.113 16.2969 123.063 16.2466 122.987 16.1962C122.886 16.2466 122.861 16.3472 122.81 16.4478C122.306 17.4541 121.826 18.4352 121.321 19.4415C119.882 22.3094 118.469 25.1773 117.03 28.0452C116.904 28.2716 116.803 28.5232 116.677 28.7496C116.5 29.1018 116.45 29.4792 116.551 29.8565C116.576 30.0075 116.652 30.1332 116.702 30.259C117.333 31.7684 117.964 33.303 118.595 34.8124C121.927 42.8124 125.234 50.8123 128.565 58.8123C128.616 58.9129 128.641 59.0135 128.692 59.1141C129.02 59.7431 129.55 60.0449 130.256 60.0449C130.534 60.0449 130.761 59.9443 131.014 59.8437C138.005 56.9758 144.972 54.0827 151.964 51.2148C152.292 51.089 152.62 50.9381 152.948 50.8123C153.68 50.4853 154.059 49.806 153.932 49.0262C153.907 48.8501 153.831 48.6991 153.781 48.523C152.569 45.63 151.383 42.7118 150.172 39.8187C147.622 33.7055 145.098 27.5924 142.549 21.4541C142.322 20.9006 142.094 20.3472 141.867 19.7937C141.716 19.4163 141.463 19.1145 141.085 18.9132C140.959 18.8377 140.807 18.7874 140.681 18.7623C136.239 17.2528 131.796 15.7434 127.354 14.2591C126.824 14.083 126.268 13.8818 125.713 13.7057C125.082 13.5296 124.527 13.6554 124.047 14.1334C123.971 14.2088 123.921 14.2843 123.845 14.3849C124.047 14.5862 124.224 14.7623 124.401 14.9635C124.577 15.1648 124.779 15.3661 124.956 15.5673C125.133 15.7686 125.309 15.9447 125.486 16.1459C125.663 16.3472 125.839 16.5484 126.016 16.7749C126.193 16.9761 126.344 17.1774 126.521 17.3786C126.723 17.605 126.874 17.8063 127.051 18.0579ZM121.574 14.8126C121.473 14.712 121.422 14.6617 121.346 14.5862C120.993 14.2843 120.64 13.9573 120.261 13.6554C119.453 13.0013 118.62 12.3975 117.712 11.9195C117.207 11.6428 116.702 11.4164 116.172 11.2655C115.844 11.1648 115.516 11.1145 115.162 11.1648C114.658 11.2403 114.279 11.6428 114.254 12.1711C114.254 12.3975 114.304 12.6239 114.405 12.8504C114.582 13.2529 114.809 13.6051 115.087 13.9321C115.44 14.3598 115.819 14.7371 116.223 15.0893C117.358 16.0956 118.62 16.9258 119.933 17.6553C119.983 17.6805 120.034 17.6805 120.11 17.7057C120.614 16.7497 121.094 15.7937 121.574 14.8126ZM126.496 20.5484C125.915 20.9509 125.764 22.083 126.167 22.8629C126.647 23.7937 127.758 24.2213 128.742 23.8691C129.676 23.5421 130.307 22.5358 130.08 21.4541C129.903 20.5987 129.045 19.844 128.363 19.8943C128.389 19.995 128.439 20.0956 128.464 20.1962C128.666 20.8755 128.061 21.5044 127.379 21.3786C127.101 21.3283 126.899 21.1773 126.748 20.9509C126.672 20.7748 126.597 20.649 126.496 20.5484Z" fill="#3F80EC"/>
<path d="M132.023 49.9062C131.291 49.9062 130.837 49.2773 131.039 48.6735C131.064 48.5729 131.115 48.4974 131.14 48.3968C133.513 42.6861 135.91 36.9503 138.283 31.2397C138.334 31.139 138.359 31.0384 138.409 30.9378C138.636 30.5101 139.141 30.3089 139.596 30.5101C140.1 30.7114 140.277 31.2648 140.126 31.6673C140.1 31.768 140.05 31.8434 140.025 31.9441C137.627 37.6799 135.229 43.4408 132.831 49.1766C132.806 49.2521 132.755 49.3276 132.73 49.403C132.553 49.7301 132.276 49.881 132.023 49.9062Z" fill="#3F80EC"/>
<path d="M129.02 41.0257C127 41.0005 125.41 39.3402 125.461 37.3528C125.511 35.3402 127.177 33.8308 129.146 33.8811C131.115 33.9314 132.654 35.5415 132.629 37.5037C132.629 39.466 131.014 41.0509 129.02 41.0257ZM129.07 39.1641C130.029 39.1641 130.787 38.3842 130.787 37.4534C130.787 36.6484 130.181 35.7679 129.095 35.7427C128.136 35.7176 127.379 36.4723 127.379 37.4534C127.354 38.5352 128.237 39.1892 129.07 39.1641Z" fill="#3F80EC"/>
<path d="M145.679 42.8878C145.679 44.9004 144.013 46.4601 142.069 46.4349C140.151 46.4098 138.485 44.8752 138.51 42.8375C138.536 40.7998 140.201 39.2652 142.145 39.2903C144.089 39.3155 145.704 40.9004 145.679 42.8878ZM143.811 42.8626C143.836 42.0828 143.23 41.152 142.094 41.152C141.085 41.152 140.378 41.957 140.378 42.8626C140.378 43.7934 141.161 44.5482 142.094 44.5482C143.054 44.5733 143.811 43.7934 143.811 42.8626Z" fill="#3F80EC"/>
<path fill-rule="evenodd" clip-rule="evenodd" d="M155.75 10.9639C154.412 11.5928 153.049 12.423 151.837 13.4041C147.496 16.8758 145.906 22.1336 148.152 25.2782C150.348 28.3725 155.346 28.121 159.561 24.7499C160.52 23.9701 162.439 22.2594 163.07 21.2531L160.344 17.1022C159.915 18.4103 159.208 19.5927 157.971 20.5739C156.356 21.8569 154.311 22.0581 153.478 20.8757C152.645 19.6934 153.301 17.706 154.892 16.4229C156.103 15.4418 157.542 15.0896 158.829 14.989L155.75 10.9639Z" fill="#3F80EC"/>
<path d="M167.209 10.1082L122.154 0.0957128C119.984 -0.382271 117.838 0.976209 117.358 3.13971L116.425 7.26547C117.258 7.39125 117.863 7.61766 118.267 7.79376L119.226 3.54223C119.479 2.43532 120.589 1.70576 121.725 1.95733L166.78 11.9698C167.891 12.2214 168.623 13.3283 168.37 14.4604L163.272 37.2778C163.019 38.3847 161.909 39.1143 160.773 38.8627L154.513 37.4791L155.296 39.6174L160.369 40.7495C160.672 40.8249 160.95 40.8501 161.252 40.8501C163.095 40.8501 164.761 39.5923 165.165 37.7306L170.263 14.9132C170.718 12.7245 169.355 10.5862 167.209 10.1082Z" fill="#3F80EC"/>
</svg>
