<svg width="107" height="111" viewBox="0 0 107 111" fill="none" xmlns="http://www.w3.org/2000/svg">
<path d="M48.9755 76.2513C49.7877 75.4265 49.7877 74.0917 48.9755 73.2669C48.1624 72.4446 46.8452 72.4446 46.0313 73.2669C45.2199 74.0917 45.2199 75.4265 46.0313 76.2513C46.8452 77.0737 48.1624 77.0737 48.9755 76.2513Z" fill="#1D64D5"/>
<path d="M23.9685 110.376C24.7751 111.2 26.0882 111.209 26.9054 110.394L36.994 100.321C38.708 98.5844 39.2292 96.0128 38.4755 93.7773L40.6456 91.6564C41.814 90.5127 43.3523 89.8824 44.9785 89.8824H72.6418C77.5495 89.8824 82.1882 87.9724 85.7047 84.5043C85.8494 84.3618 84.6062 85.8458 104.577 61.6571C107.539 58.1058 107.096 52.773 103.588 49.768C100.103 46.791 94.8811 47.2186 91.9109 50.709L79.6318 63.4987C78.0813 61.5649 75.7169 60.3594 73.1622 60.3594H49.9577C46.6558 58.9595 43.1523 58.2508 39.5373 58.2508C29.5202 58.2508 20.7691 62.9376 16.0719 71.7344C14.0937 71.3545 12.0073 71.961 10.5064 73.482L0.607167 83.5436C-0.201032 84.3651 -0.202658 85.6941 0.603915 86.5173L23.9685 110.376ZM39.5365 62.4679C42.7238 62.4679 45.8054 63.1181 48.6975 64.4002C48.9609 64.5172 49.2447 64.5773 49.5317 64.5773H73.1622C75.4185 64.5773 77.3243 66.442 77.3243 68.7944C77.3243 71.1205 75.4575 73.0123 73.1622 73.0123H56.1843C55.0354 73.0123 54.1036 73.9566 54.1036 75.1209C54.1036 76.286 55.0354 77.2294 56.1843 77.2294H73.1622C77.752 77.2294 81.4857 73.4458 81.4857 68.7944C81.4857 68.4236 81.4596 68.0561 81.4125 67.6919C93.2907 55.3183 94.9657 53.5797 95.0372 53.4932C96.5203 51.7192 99.153 51.4942 100.904 52.9906C102.657 54.4927 102.879 57.1591 101.392 58.943L82.728 81.5545C80.0026 84.206 76.4242 85.6653 72.6418 85.6653H44.9785C42.2677 85.6653 39.7016 86.7159 37.7551 88.6217L35.9866 90.3512L19.6844 73.8314C23.4945 66.5878 30.6439 62.4679 39.5365 62.4679ZM13.4514 76.4623C14.1376 75.7669 15.1913 75.6416 16.028 76.1657C16.3459 76.3618 34.1442 94.4431 34.254 94.5922C34.863 95.4236 34.776 96.6044 34.0629 97.3278L25.4621 105.914L5.01568 85.0358L13.4514 76.4623Z" fill="#1D64D5"/>
<rect x="24.5813" y="3" width="64.8" height="46.2857" rx="2" stroke="#1D64D5" stroke-width="5"/>
<path fill-rule="evenodd" clip-rule="evenodd" d="M59.2729 18.4286C57.715 19.1288 56.1271 20.0821 54.7148 21.1746C49.6858 25.0722 47.8369 30.9608 50.4477 34.5083C52.9985 37.9756 58.8064 37.7057 63.6983 33.9135C64.8154 33.0488 67.0281 31.1042 67.7814 29.9906L64.6185 25.3C64.1263 26.7679 63.3089 28.0882 61.8751 29.1976C60.009 30.6444 57.6337 30.8638 56.6493 29.5266C55.6777 28.2063 56.431 25.9749 58.2971 24.5281C59.7094 23.4356 61.3743 23.0306 62.8637 22.9125L59.2729 18.4286Z" fill="#1D64D5"/>
</svg>
