<svg width="124" height="108" viewBox="0 0 124 108" fill="none" xmlns="http://www.w3.org/2000/svg">
<g clip-path="url(#clip0)">
<path d="M68.1187 85.485H51.8711C50.7549 85.485 49.8453 86.3972 49.8453 87.5167C49.8453 88.6363 50.7549 89.5485 51.8711 89.5485H68.1049C69.2212 89.5485 70.1307 88.6363 70.1307 87.5167C70.1445 86.3972 69.235 85.485 68.1187 85.485Z" fill="#1D64D5"/>
<path d="M43.7542 14.2498C42.6379 14.2498 41.7284 15.162 41.7284 16.2815V18.3132C41.7284 19.4328 42.6379 20.345 43.7542 20.345C44.8704 20.345 45.78 19.4328 45.78 18.3132V16.2815C45.7937 15.162 44.8842 14.2498 43.7542 14.2498Z" fill="#1D64D5"/>
<path d="M43.7542 24.4224C42.6379 24.4224 41.7284 25.3346 41.7284 26.4541V36.6266C41.7284 37.7461 42.6379 38.6583 43.7542 38.6583C44.8704 38.6583 45.78 37.7461 45.78 36.6266V26.4541C45.7937 25.3346 44.8842 24.4224 43.7542 24.4224Z" fill="#1D64D5"/>
<path d="M100.297 56.861C99.3323 53.3228 96.1213 50.8764 92.4694 50.8902H86.3783V47.1446L93.4341 44.2145C97.6097 42.5559 99.6354 37.8152 97.9817 33.6273C96.3143 29.4533 91.6012 27.4077 87.4256 29.0663L86.3645 29.4809V8.14077C86.3645 3.64884 82.7263 0 78.2476 0H41.7284C37.2496 0 33.6114 3.64884 33.6114 8.14077V34.9127C33.0189 34.7469 32.4125 34.6363 31.7924 34.6087H31.4341C28.3747 34.6225 25.7977 36.9306 25.4532 39.9852C25.1224 42.7909 24.585 45.569 23.827 48.3056C23.3723 49.7845 22.821 51.2357 22.1596 52.6455C20.8228 55.2992 20.0098 58.1879 19.803 61.1456C19.7479 62.901 19.8168 64.753 19.8857 66.5498C19.9546 68.2222 20.0098 69.9498 19.9684 71.5393C19.9408 72.6035 19.8444 74.2621 19.7479 76.128C19.5274 80.1915 19.2518 85.2639 19.431 87.6826C19.7479 91.9396 21.4016 96.0722 24.1164 99.3617C28.3196 104.489 35.3478 106.328 41.6457 107.157C46.152 107.751 50.7135 108.097 55.2611 107.959C58.3756 107.862 61.5176 107.696 64.5356 106.867C67.7741 105.982 70.5027 104.282 73.0522 102.126C73.8515 101.449 74.6232 100.716 75.3536 99.956C75.643 99.6519 77.0073 97.6893 77.3243 97.6893H78.2476C81.9546 97.6893 85.1931 95.16 86.1027 91.5526C86.1853 91.5526 86.268 91.5803 86.3645 91.5803H88.4592C91.6288 91.5941 94.509 89.7558 95.8319 86.8672C97.1549 83.9785 96.6726 80.5785 94.5917 78.1735C96.645 76.9573 98.0506 74.8979 98.4365 72.5483C98.8224 70.1986 98.1333 67.7937 96.5761 65.9831C99.7457 64.1449 101.262 60.3993 100.297 56.861ZM86.3783 33.8761L88.9277 32.8533C90.2783 32.3143 91.8079 32.5493 92.9517 33.4477C94.0955 34.3599 94.6606 35.7973 94.4401 37.2347C94.2196 38.6721 93.2687 39.8884 91.9182 40.4274L86.3783 42.7356V33.8761ZM49.8453 4.06348H70.1444V6.09521C70.1444 7.21474 69.2349 8.12695 68.1187 8.12695H51.8711C50.7548 8.12695 49.8453 7.21474 49.8453 6.09521V4.06348ZM65.0042 102.14C62.0689 103.259 58.8993 103.729 55.7297 103.881C50.5067 104.13 45.0909 104.075 39.9231 102.886C34.9895 101.753 29.5737 99.5275 26.3489 95.4641C24.5161 93.1559 23.5101 90.3363 23.5239 87.3786C23.3723 85.2224 23.6341 80.302 23.8408 76.3491C23.9373 74.4418 24.0475 72.7418 24.0613 71.636C24.1027 69.9222 24.0338 68.1254 23.9786 66.3978C23.9097 64.5872 23.8408 62.8871 23.8959 61.2839C24.1027 58.8375 24.7779 56.4602 25.908 54.2764C26.6383 52.7008 27.2447 51.0699 27.7546 49.4113C28.5539 46.4812 29.1464 43.482 29.5048 40.4689C29.6012 39.4599 30.4418 38.6998 31.4616 38.686H31.7924C32.6468 38.7551 33.4599 39.0315 34.1765 39.5152C34.3418 39.6949 34.521 39.8331 34.7415 39.9437C36.2298 41.2014 37.7044 43.7446 37.7044 48.8723C37.6906 48.969 37.7043 49.0658 37.7319 49.1625C38.0764 55.161 33.763 64.8636 32.7432 65.375C31.9026 65.7896 31.4478 66.7433 31.6683 67.6555C31.8888 68.5677 32.7019 69.2173 33.6528 69.2035V89.5623C33.6528 94.0543 37.2909 97.7031 41.7697 97.7031H71.936C71.5501 97.7031 70.3512 99.0714 70.0066 99.3478C68.4356 100.564 66.7681 101.463 65.0042 102.14ZM78.2614 93.6396H41.7284C39.4821 93.6396 37.663 91.8152 37.663 89.5623V65.4026C40.0609 60.192 41.4252 54.5805 41.7146 48.8446H41.7284C41.7284 42.6389 39.8128 39.1282 37.663 37.1518V8.12695C37.663 5.87407 39.4821 4.04965 41.7284 4.04965H45.7937V6.08139C45.7937 9.4538 48.5223 12.1904 51.8848 12.1904H68.1187C71.4812 12.1904 74.2098 9.4538 74.2098 6.08139V4.06348H78.2751C80.5214 4.06348 82.3405 5.88789 82.3405 8.14077V52.0236C80.0667 53.3228 78.5645 55.6447 78.3165 58.257C78.0684 60.8692 79.102 63.44 81.0864 65.14C79.3087 66.6742 78.2889 68.8994 78.2751 71.249C78.2751 73.5987 79.2949 75.8239 81.0589 77.3719C79.102 79.0719 78.0684 81.6151 78.3027 84.1996C78.537 86.7842 79.9977 89.1062 82.2302 90.4193C81.8306 92.2851 80.1769 93.6396 78.2614 93.6396ZM88.473 87.5306H86.3783C84.132 87.5306 82.3129 85.7062 82.3129 83.4533C82.3129 81.2004 84.132 79.376 86.3783 79.376H88.473C90.7192 79.376 92.5245 81.2004 92.5245 83.4533C92.5245 85.7062 90.7192 87.5306 88.473 87.5306ZM90.4436 75.3125H86.3783C85.9097 75.3125 85.4412 75.2296 85.014 75.0499C83.4016 74.4832 82.3129 72.9491 82.3267 71.2352C82.3267 68.9823 84.1458 67.1579 86.3921 67.1579H90.4574C92.7037 67.1579 94.5227 68.9823 94.5227 71.2352C94.4952 73.4881 92.6761 75.3125 90.4436 75.3125ZM92.4694 63.0945H86.3783C84.132 63.0945 82.3129 61.27 82.3129 59.0172C82.3129 56.7643 84.132 54.9399 86.3783 54.9399H92.4694C94.7157 54.9399 96.5348 56.7643 96.5348 59.0172C96.5348 61.27 94.7157 63.0945 92.4694 63.0945Z" fill="#1D64D5"/>
<path d="M18.1632 34.1388C17.5844 34.1388 17.0883 33.7103 17.0194 33.1298C16.3028 27.0623 10.9144 26.4956 10.6802 26.4818C10.1014 26.4127 9.64661 25.9151 9.64661 25.3208C9.64661 24.7265 10.1014 24.2289 10.694 24.1874C10.9144 24.1736 16.3165 23.6069 17.0194 17.5394C17.0883 16.9589 17.5706 16.5304 18.1632 16.5304C18.7557 16.5304 19.2381 16.9727 19.307 17.5394C20.0236 23.6069 25.4119 24.1736 25.6462 24.2012C26.2387 24.2565 26.6935 24.7541 26.6935 25.3484C26.6935 25.9427 26.2387 26.4403 25.6462 26.4818C25.4257 26.4956 20.0236 27.0623 19.3208 33.1298C19.2381 33.6965 18.742 34.1388 18.1632 34.1388ZM14.4699 25.3208C15.848 26.0948 17.2261 27.2972 18.1769 29.0664C19.1278 27.2834 20.4921 26.0809 21.884 25.3208C20.5059 24.5468 19.1278 23.3581 18.1769 21.5752C17.2261 23.3581 15.848 24.5468 14.4699 25.3208Z" fill="#1D64D5"/>
<path d="M110.357 81.933C109.778 81.933 109.282 81.5045 109.213 80.924C108.497 74.8565 103.108 74.2898 102.874 74.2621C102.281 74.2069 101.827 73.7093 101.827 73.115C101.827 72.5207 102.281 72.0231 102.874 71.9816C103.094 71.9678 108.497 71.4011 109.199 65.3335C109.268 64.753 109.751 64.3246 110.343 64.3246C110.922 64.3246 111.404 64.753 111.473 65.3335C112.19 71.4011 117.578 71.9678 117.812 71.9816C118.405 72.0369 118.86 72.5345 118.86 73.1288C118.86 73.7231 118.405 74.2207 117.812 74.2621C117.592 74.276 112.19 74.8426 111.487 80.9102C111.418 81.4907 110.936 81.933 110.357 81.933ZM106.65 73.115C108.028 73.889 109.406 75.0914 110.357 76.8606C111.294 75.0776 112.672 73.8751 114.05 73.115C112.672 72.341 111.294 71.1523 110.357 69.3694C109.406 71.1523 108.028 72.341 106.65 73.115Z" fill="#1D64D5"/>
<path d="M119.783 64.7116C122.112 64.7116 124 62.818 124 60.4822C124 58.7684 122.966 57.2342 121.395 56.5708C119.824 55.9212 118.005 56.2805 116.806 57.483C115.608 58.6855 115.235 60.5099 115.897 62.0855C116.545 63.675 118.088 64.7116 119.783 64.7116ZM118.488 59.9432C118.708 59.418 119.218 59.0725 119.783 59.0725C120.555 59.0725 121.189 59.7082 121.189 60.4822C121.189 61.0489 120.844 61.5603 120.321 61.7814C119.797 62.0026 119.191 61.8782 118.791 61.4774C118.391 61.0765 118.281 60.4684 118.488 59.9432Z" fill="#1D64D5"/>
<path d="M4.21693 53.7097C6.54589 53.7097 8.43387 51.8162 8.43387 49.4804C8.43387 47.7665 7.41409 46.2324 5.82929 45.569C4.25827 44.9194 2.4392 45.2787 1.24027 46.4812C0.0413376 47.6836 -0.330745 49.508 0.330735 51.0837C0.978435 52.6731 2.50811 53.7097 4.21693 53.7097ZM2.92153 48.9414C3.14203 48.4162 3.65192 48.0706 4.21693 48.0706C4.98866 48.0706 5.62258 48.7064 5.62258 49.4804C5.62258 50.0471 5.27806 50.5585 4.75439 50.7796C4.23071 51.0007 3.62436 50.8764 3.22471 50.4755C2.82507 50.0747 2.70104 49.4666 2.92153 48.9414Z" fill="#1D64D5"/>
<path d="M15.4759 42.4178C15.4759 43.6617 14.4699 44.6568 13.2434 44.6568C12.0031 44.6568 11.0109 43.6479 11.0109 42.4178C11.0109 41.1738 12.0169 40.1787 13.2434 40.1787C14.4699 40.1787 15.4759 41.1877 15.4759 42.4178Z" fill="#1D64D5"/>
<path d="M107.16 46.9097C107.16 48.1536 106.154 49.1488 104.927 49.1488C103.687 49.1488 102.695 48.1398 102.695 46.9097C102.695 45.6658 103.701 44.6707 104.927 44.6707C106.154 44.6707 107.16 45.6658 107.16 46.9097Z" fill="#1D64D5"/>
</g>
<defs>
<clipPath id="clip0">
<rect width="124" height="108" fill="white"/>
</clipPath>
</defs>
</svg>
