<svg width="108" height="108" viewBox="0 0 108 108" fill="none" xmlns="http://www.w3.org/2000/svg">
<g clip-path="url(#clip0)">
<path d="M90.0023 77.8233L85.4196 75.0737C84.017 74.2405 82.42 73.7961 80.7952 73.7961H73.8933C72.4768 73.7961 71.0742 73.9766 69.7133 74.3377L48.9243 79.9203C46.6468 80.5452 44.8276 82.2394 44.036 84.4614L25.7328 74.5738C24.2469 73.7266 22.511 73.4489 20.8446 73.7683C20.2058 73.8794 19.5947 74.0877 19.0254 74.3654C17.72 74.9904 16.6507 75.9902 15.9285 77.2401C15.3036 78.3233 14.9703 79.5592 14.9703 80.823C14.9564 83.3921 16.3035 85.7668 18.5254 87.0444L51.299 106.653C52.7294 107.542 54.368 108 56.0345 108H81.3923C82.5311 108 83.6421 107.792 84.6975 107.375L89.9746 105.292V108.014H107.972V72.0046H90.0023V77.8233ZM83.3921 104.028C82.7672 104.278 82.0867 104.403 81.4201 104.403H56.0484C55.0346 104.403 54.0347 104.112 53.1737 103.584L20.3585 83.9475C19.2475 83.3087 18.5671 82.1145 18.5671 80.823C18.5671 80.198 18.7337 79.5731 19.0531 79.0176C19.4142 78.3927 19.9558 77.8928 20.5946 77.5873C20.8862 77.4484 21.1779 77.3512 21.4973 77.2956C21.7195 77.254 21.9555 77.2262 22.1916 77.2262C22.8165 77.2262 23.4137 77.379 23.9553 77.6984L43.7861 88.4192C43.8138 88.5303 43.8138 88.6414 43.8416 88.7525C44.6887 91.891 47.5495 94.0851 50.7991 94.0851C51.7989 93.9879 52.7988 93.8213 53.7709 93.5574L72.4768 88.5581L71.5464 85.0724L52.9099 90.0579C52.0905 90.2523 51.0351 90.4606 50.8129 90.4884C49.1881 90.4884 47.7578 89.4052 47.3273 87.8359C47.2717 87.6137 47.2301 87.3916 47.2162 87.1694C47.2162 87.1694 47.2023 86.7389 47.2162 86.5861C47.355 85.0863 48.4105 83.8226 49.8686 83.406L70.6437 77.8511C71.713 77.5595 72.7962 77.4206 73.8933 77.4206H80.7952C81.7812 77.4206 82.7394 77.6845 83.5726 78.1844L90.0023 82.0311V101.418L83.3921 104.028ZM93.5991 75.6014H104.403V104.403H93.5991V75.6014Z" fill="#1D64D5"/>
<path d="M74.2405 14.4009L64.5889 4.74939C61.5615 1.69423 57.4371 0 53.1321 0H30.4961C29.0935 0 27.7187 0.333291 26.4688 0.944323L22.4277 2.95795C21.6222 3.36068 20.7196 3.5551 19.8169 3.52732L17.9977 3.47178V0H0V39.606H17.9977V34.2039H21.0528L22.136 34.9261C25.1773 36.9536 28.7324 38.0923 32.3847 38.2312V61.2144H107.986V14.4148H74.2405V14.4009ZM14.4009 35.9954H3.59676V3.59676H14.4009V35.9954ZM24.1358 31.9265L22.136 30.6072H17.9977V7.06854L19.6919 7.12408C21.2056 7.17963 22.6915 6.86023 24.0525 6.17976L28.0797 4.16613C28.8296 3.79118 29.6629 3.59676 30.4961 3.59676H53.1321C56.4789 3.58287 59.6868 4.91603 62.0476 7.29073L69.1578 14.4009H54.2986L49.9241 10.0265L47.3828 12.5678L60.1034 25.2884C61.5199 26.691 61.5199 28.9824 60.1173 30.3989C58.7147 31.8154 56.4233 31.8154 55.0068 30.4128L44.3832 19.7891L43.1195 20.8723C39.6338 23.8303 34.5511 23.8997 30.9821 21.0528L29.9406 20.2057L27.677 22.997L28.7324 23.858C29.8295 24.7329 31.0793 25.4412 32.3986 25.9272V34.6206C29.4545 34.4817 26.5938 33.5651 24.1358 31.9265ZM49.7436 30.2461L52.4516 32.968C55.2707 35.7454 59.7979 35.7454 62.617 32.9819C59.9784 37.0786 61.0199 42.5223 64.9916 45.3414C68.9634 48.1744 74.4488 47.3689 77.4484 43.5361C80.448 39.7032 79.9064 34.19 76.2124 31.0099C72.5185 27.8298 66.9775 28.1214 63.6446 31.6765C64.8806 29.7462 65.0889 27.3437 64.2279 25.219H88.3359C89.1135 29.7462 92.6548 33.3013 97.182 34.0651V41.5641C92.6548 42.3418 89.1135 45.883 88.3359 50.4102H52.0489C51.2712 45.883 47.73 42.3279 43.2028 41.5641V34.0651C45.7719 33.6207 48.1049 32.2597 49.7436 30.2461ZM64.7972 37.8007C64.7972 34.815 67.2136 32.3986 70.1993 32.3986C73.185 32.3986 75.6014 34.815 75.6014 37.8007C75.6014 40.7864 73.185 43.2028 70.1993 43.2028C67.2136 43.2028 64.7972 40.7864 64.7972 37.8007ZM104.403 57.6037H35.9954V26.6771C38.8422 26.8854 41.6891 26.1633 44.0916 24.6079L47.1606 27.677C45.8136 29.5101 43.6611 30.5933 41.3836 30.6072H39.5782V45.0081H41.3836C45.3553 45.0081 48.5771 48.2299 48.5771 52.2016V54.0069H91.7938V52.2016C91.7938 48.2299 95.0156 45.0081 99.0012 45.0081H100.806V30.6072H99.0012C95.0295 30.6072 91.7938 27.3854 91.7938 23.3998V21.5944H61.4921L57.8953 17.9977H104.403V57.6037Z" fill="#1D64D5"/>
</g>
<defs>
<clipPath id="clip0">
<rect width="108" height="108" fill="white"/>
</clipPath>
</defs>
</svg>
